<?xml version="1.0" standalone="no"?>
<!DOCTYPE svg PUBLIC "-//W3C//DTD SVG 20010904//EN"
 "http://www.w3.org/TR/2001/REC-SVG-20010904/DTD/svg10.dtd">
<svg version="1.0" xmlns="http://www.w3.org/2000/svg"
 width="768.000000pt" height="768.000000pt" viewBox="0 0 768.000000 768.000000"
 preserveAspectRatio="xMidYMid meet">
<metadata>
Created by potrace 1.11, written by Peter Selinger 2001-2013
</metadata>
<g transform="translate(0.000000,768.000000) scale(0.100000,-0.100000)"
fill="#000000" stroke="none">
<path d="M3495 7655 c-444 -54 -713 -119 -1063 -257 -1209 -475 -2101 -1549
-2351 -2833 -55 -279 -66 -401 -66 -735 0 -341 11 -461 70 -755 236 -1182
1011 -2182 2100 -2706 395 -190 748 -296 1163 -349 125 -16 213 -20 483 -20
181 0 373 5 427 11 1495 164 2746 1170 3229 2594 74 218 126 438 165 695 26
172 37 694 18 889 -111 1192 -770 2257 -1798 2904 -152 96 -491 265 -665 331
-271 104 -553 175 -857 216 -200 28 -685 36 -855 15z"/>
</g>
</svg>
